<svg xmlns="http://www.w3.org/2000/svg" viewBox="8.0 8 674.0 1026.0" width="674.0" height="1026.0" font-family="Helvetica, Arial, sans-serif">
<defs><marker id="ah-6b6862" viewBox="0 0 10 10" refX="9" refY="5" markerWidth="8" markerHeight="8" orient="auto-start-reverse"><path d="M0,0 L10,5 L0,10 z" fill="#6b6862"/></marker></defs>
<rect x="8.0" y="8" width="674.0" height="1026.0" fill="#ffffff"/>
<ellipse cx="265.0" cy="64.0" rx="94.0" ry="32.0" fill="#eeece7" stroke="#6b6862" stroke-width="2"/>
<text x="265.0" y="60.5" font-size="14" text-anchor="middle" fill="#1c1b19">What to show</text>
<text x="265.0" y="78.0" font-size="12" text-anchor="middle" fill="#1c1b19">your words</text>
<rect x="171.0" y="156" width="188" height="64" rx="10" fill="#dbe7f3" stroke="#2f5d8a" stroke-width="2"/>
<text x="265.0" y="184.5" font-size="14" text-anchor="middle" fill="#1c1b19">Spec</text>
<text x="265.0" y="202.0" font-size="12" text-anchor="middle" fill="#1c1b19">nodes, edges, layout</text>
<rect x="171.0" y="280" width="188" height="64" rx="10" fill="#dbe7f3" stroke="#2f5d8a" stroke-width="2"/>
<text x="265.0" y="308.5" font-size="14" text-anchor="middle" fill="#1c1b19">Generator</text>
<text x="265.0" y="326.0" font-size="12" text-anchor="middle" fill="#1c1b19">does the geometry</text>
<rect x="171.0" y="404" width="188" height="64" rx="10" fill="#dbe7f3" stroke="#2f5d8a" stroke-width="2"/>
<text x="265.0" y="432.5" font-size="14" text-anchor="middle" fill="#1c1b19">.excalidraw</text>
<text x="265.0" y="450.0" font-size="12" text-anchor="middle" fill="#1c1b19">editable anywhere</text>
<rect x="32.0" y="528" width="188" height="64" rx="10" fill="#e1ead7" stroke="#4f6b3a" stroke-width="2"/>
<text x="126.0" y="556.5" font-size="14" text-anchor="middle" fill="#1c1b19">Preview</text>
<text x="126.0" y="574.0" font-size="12" text-anchor="middle" fill="#1c1b19">check, fix, repeat</text>
<rect x="310.0" y="528" width="188" height="64" rx="10" fill="#dbe7f3" stroke="#2f5d8a" stroke-width="2"/>
<text x="404.0" y="556.5" font-size="14" text-anchor="middle" fill="#1c1b19">SVG</text>
<text x="404.0" y="574.0" font-size="12" text-anchor="middle" fill="#1c1b19">into the doc</text>
<polyline points="265.0,96 265.0,156" fill="none" stroke="#6b6862" stroke-width="2" marker-end="url(#ah-6b6862)"/>
<polyline points="265.0,220 265.0,280" fill="none" stroke="#6b6862" stroke-width="2" marker-end="url(#ah-6b6862)"/>
<polyline points="265.0,344 265.0,404" fill="none" stroke="#6b6862" stroke-width="2" marker-end="url(#ah-6b6862)"/>
<polyline points="171.0,436.0 220.0,560.0" fill="none" stroke="#6b6862" stroke-width="2" marker-end="url(#ah-6b6862)"/>
<polyline points="359.0,436.0 310.0,560.0" fill="none" stroke="#6b6862" stroke-width="2" marker-end="url(#ah-6b6862)"/>
<polyline points="220.0,560.0 588.0,560.0 588.0,188.0 359.0,188.0" fill="none" stroke="#6b6862" stroke-width="2" stroke-dasharray="8 6" marker-end="url(#ah-6b6862)"/>
<text x="626.0" y="377.0" font-size="13" text-anchor="start" fill="#1c1b19">fix spec</text>
<rect x="32" y="992.0" width="18" height="18" rx="10" fill="#dbe7f3" stroke="#2f5d8a" stroke-width="2"/>
<text x="58" y="1003.0" font-size="13" text-anchor="start" fill="#1c1b19">files you keep</text>
<rect x="232" y="992.0" width="18" height="18" rx="10" fill="#e1ead7" stroke="#4f6b3a" stroke-width="2"/>
<text x="258" y="1003.0" font-size="13" text-anchor="start" fill="#1c1b19">look at it</text>
</svg>